# xmcd
#
# Track frame offsets:
#	150
#	12072
#	25212
#	35555
#	47800
#	59323
#	74224
#	86300
#	99291
#	111310
#	126629
#	139889
#	151446
#	164705
#	176068
#	186287
#	198975
#	212888
#	226278
#	238980
#	250722
#	264692
#	278239
#	288511
#	299272
#	311341
#	325058
#
# Disc length: 4485 seconds
#
# Revision: 1
# Processed by: cddbd v1.5.1PL2 Copyright (c) Steve Scherf et al.
# Submitted via: audiograbber 1.83.01
#
DISCID=a111831b
DTITLE=Verschiedene - The Best Of Country
DYEAR=1900
DGENRE=Country
TTITLE0=Jack Green - There goes my Everything
TTITLE1=Lynn Anderson - Rose Garden
TTITLE2=George Hamilton IV - Abilene
TTITLE3=Jeanne Pruett - Satin Sheets
TTITLE4=Sammi Smith - Help me make it through the Night
TTITLE5=Jeannie C Riley - Harper Valley P T A
TTITLE6=Johnny Paycheck - Take this Job and Shove it
TTITLE7=Paron Young - It´s Four in the Morning
TTITLE8=Donna Fargo - Funny Face
TTITLE9=Melba Montgomery - No Change
TTITLE10=Margo Smith - Don´t Break the Heart that Loves You
TTITLE11=Leon Ashley - Laura
TTITLE12=Lynn Anderson - Top of the World
TTITLE13=Don Gibson - Sea of Heartbreak
TTITLE14=Connie Smith - Once a Day
TTITLE15=David Houston - My Exlusive Dreams
TTITLE16=Jeannie Seely - Don´t Touch Me
TTITLE17=Johnny Paycheck - She´s all I got
TTITLE18=Stonewell Jackson - Me and You and a Dog named Boo
TTITLE19=Donna Fargo - The happiest Girl in the whole USA
TTITLE20=Barbara Fairchild - Teddy Bear Song
TTITLE21=Jimmy Dean - Big Bad John
TTITLE22=Faron Young - Hallo Wally
TTITLE23=Ferlin Husky - Wings of a Dove
TTITLE24=Skeeter Davis - The End of the World
TTITLE25=David Houston - Almost Persuaded
TTITLE26=Wynn Steward - It´s such a pretty World Today
EXTD=
EXTT0=
EXTT1=
EXTT2=
EXTT3=
EXTT4=
EXTT5=
EXTT6=
EXTT7=
EXTT8=
EXTT9=
EXTT10=
EXTT11=
EXTT12=
EXTT13=
EXTT14=
EXTT15=
EXTT16=
EXTT17=
EXTT18=
EXTT19=
EXTT20=
EXTT21=
EXTT22=
EXTT23=
EXTT24=
EXTT25=
EXTT26=
PLAYORDER=
